<svg xmlns="http://www.w3.org/2000/svg" width="135" height="135" viewBox="0 0 134.59 134.59"><g fill-rule="evenodd" fill="currentColor"><path d="M67.08,11.44v-11.44h31.63c30.35,0 31.68,0.04 32.86,1l1.24,1l0.15,15.74c0.17,17.04 -0.05,18.57 -2.65,19.17c-0.64,0.15 -12.95,0.33 -27.35,0.4l-26.19,0.13l-2.47,1.23c-5.87,2.92 -10.09,8.79 -10.72,14.92l-0.31,2.97h44.08l2.94,2.53l0.16,14.28c0.11,10.13 -0.02,14.72 -0.47,15.78c-0.24,0.59 -0.42,1.06 -0.72,1.45c-1.26,1.62 -4.65,1.58 -23.96,1.58h-21.88v6.28h-19.9v-17.81c0,-9.79 0.15,-17.81 0.34,-17.81c0.19,0 3.24,2.83 6.8,6.28l6.46,6.28h26.01l1.16,1.56c2.81,3.8 7.87,4.2 10.94,0.85c1.48,-1.61 1.72,-2.26 1.72,-4.56c0,-2.44 -0.19,-2.88 -2.1,-4.79c-2.05,-2.05 -2.17,-2.09 -5.08,-1.85c-2.74,0.23 -3.15,0.44 -5.03,2.55l-2.04,2.3l-12.02,0.16l-12.02,0.16l-7.3,-7.19c-7.22,-7.11 -7.3,-7.21 -7.3,-9.53c0,-2.31 0.09,-2.44 9.31,-12.08c5.12,-5.36 12.11,-12.75 15.53,-16.43l6.22,-6.68h15.82l1.45,1.81c4.09,5.13 12.43,2.63 12.43,-3.71c0,-4.5 -2.58,-7.2 -6.88,-7.2c-2.79,0 -4.86,1.14 -6.13,3.38l-0.87,1.52l-8.53,0l-8.53,0l-2.02,1.96c-1.11,1.08 -7.87,8.19 -15.04,15.8l-13.02,13.84l-0.15,-5.08c-0.11,-3.65 0.05,-5.37 0.56,-6.1c0.39,-0.56 5.7,-6.35 11.8,-12.86zM22.29,25.68c7.65,-13.54 20.49,-22.32 36.37,-24.87c2.18,-0.35 4.15,-0.54 4.36,-0.43c0.22,0.11 0.39,2.22 0.39,4.68v4.47l-10.08,10.8c-5.55,5.94 -10.99,11.69 -12.11,12.78l-2.03,1.98h-14.42l-0.33,-1.3c-0.18,-0.71 -1.14,-2.12 -2.14,-3.11l-1.81,-1.81zM95.88,19.64c-0.96,-1.15 -0.8,-3.48 0.3,-4.28c2.96,-2.17 6.51,1.41 4.07,4.11c-1.05,1.16 -3.47,1.25 -4.37,0.17zM10.48,42.39c-3.86,-2.75 -3.04,-9.7 1.35,-11.51c6.07,-2.51 12.1,4.19 8.51,9.45c-2.45,3.59 -6.52,4.44 -9.86,2.06zM19.04,45.71c2.11,-0.96 4.59,-3.37 5.35,-5.2l0.75,-1.79l7.22,0.15l7.22,0.15l0.29,18.59h-22.02v-5.68c0,-5.4 0.06,-5.7 1.19,-6.22zM1.62,59.6c0,-2.33 1.74,-5.03 3.81,-5.93c3.52,-1.53 6.84,-0.41 8.73,2.94c1.43,2.54 1.17,4.9 -0.79,7.23c-4.04,4.8 -11.75,2.01 -11.74,-4.24zM17.85,78.56v-17.3l10.87,0.14l10.87,0.14l0.29,17.02zM88.61,75.97c-1.49,-0.8 -1.86,-2.48 -0.87,-3.98c1.16,-1.77 3.63,-1.75 4.79,0.03c0.79,1.2 0.79,1.42 0.03,2.58c-1.03,1.57 -2.58,2.11 -3.95,1.38zM2.96,85.31c-2.65,-3.15 -1.27,-8.83 2.54,-10.47c2.14,-0.92 5.55,-0.19 7.31,1.57c1.43,1.43 1.64,2 1.64,4.47c0,2.29 -0.25,3.1 -1.31,4.25c-3.06,3.32 -7.47,3.4 -10.17,0.19zM17.85,92.07v-9.33h22v15.71h-15.47l-1.01,-1.87c-0.56,-1.03 -2.02,-2.46 -3.26,-3.19zM7.38,100.8c0,-2.43 1,-4.09 3.33,-5.56c3.56,-2.24 9.27,0.36 10.06,4.57c0.65,3.45 -3.21,8.07 -6.74,8.07c-3.58,0 -6.65,-3.27 -6.66,-7.08zM19.82,108.94c2.11,-1.18 4.31,-3.95 4.31,-5.41c0,-0.79 0.83,-0.88 7.86,-0.88h7.86v9.19l-1.74,0.94c-0.96,0.52 -2.13,1.61 -2.62,2.43c-1.17,1.98 -1.12,5.64 0.11,7.65c1.1,1.8 3.93,3.36 6.08,3.36c2.16,0 4.99,-1.57 6.08,-3.36c2.01,-3.3 0.71,-8.22 -2.69,-10.15c-1.54,-0.88 -1.56,-0.94 -1.56,-5.47l0,-4.58h19.9v14.59c0,13.97 -0.05,14.65 -1.09,15.97l-1.09,1.38h-20.65c-19.95,0 -20.68,-0.04 -21.7,-1.05c-0.98,-0.98 -1.05,-1.75 -1.05,-12.27v-11.23zM39.88,121.61c-1.66,-1.23 -1.97,-3.01 -0.78,-4.34c2.31,-2.55 6.93,-0.09 5.54,2.96c-0.9,1.98 -3.11,2.62 -4.77,1.38z"/></g></svg>
